<svg width="82" height="94" viewBox="0 0 82 94" fill="none" xmlns="http://www.w3.org/2000/svg">
<path fill-rule="evenodd" clip-rule="evenodd" d="M56.8254 0.09252C56.8939 -0.00509974 57.0283 -0.0288239 57.126 0.0395302L63.8003 4.71301C63.898 4.78136 63.9217 4.9159 63.8534 5.01352L54.5637 18.2804C59.08 19.7232 62.1568 21.2796 62.1568 21.2796C62.1568 21.2796 54.6361 34.2159 41.8802 34.2159C29.1242 34.2159 20.06 22.159 20.06 22.159C20.06 22.159 23.274 20.1079 28.0383 18.3487L17.8488 6.20552C17.7723 6.11422 17.7842 5.97812 17.8755 5.90152L24.1171 0.664115C24.2085 0.587515 24.3446 0.599421 24.4211 0.690713L37.3226 16.0661C38.4273 15.9412 39.5527 15.8713 40.6884 15.8713C42.3208 15.8713 43.9511 15.9954 45.5427 16.206L56.8254 0.09252ZM59.3491 34.8286C62.7531 32.3974 67.904 26.0521 67.904 26.0521C67.904 26.0521 81.0611 36.4784 81.0611 58.586C81.0611 80.6934 58.3146 93.999 58.3146 93.999C58.3146 93.999 47.4467 83.0236 44.7787 69.1107C42.1109 55.1978 48.7253 39.7491 48.7253 39.7491C48.7253 39.7491 55.9449 37.2597 59.3491 34.8286V34.8286ZM22.6885 34.8286C19.2845 32.3974 14.1336 26.0521 14.1336 26.0521C14.1336 26.0521 0.976562 36.4784 0.976562 58.586C0.976562 80.6934 23.7231 93.999 23.7231 93.999C23.7231 93.999 34.5909 83.0236 37.2589 69.1107C39.9267 55.1978 33.3124 39.7491 33.3124 39.7491C33.3124 39.7491 26.0927 37.2597 22.6885 34.8286V34.8286Z" fill="url(#paint0_linear_1659_5609)"/>
<defs>
<linearGradient id="paint0_linear_1659_5609" x1="-7.03902" y1="7.04924" x2="67.587" y2="106.616" gradientUnits="userSpaceOnUse">
<stop stop-color="white"/>
<stop offset="1" stop-color="white" stop-opacity="0"/>
</linearGradient>
</defs>
</svg>
